# xmcd
#
# Track frame offsets:
#	150
#	8729
#	19430
#	27676
#	37490
#	48870
#	61035
#	69255
#	79643
#	88977
#	97145
#	114899
#	123729
#	132532
#	140255
#	156573
#	165046
#	172839
#	181416
#	189871
#	201434
#	209872
#	220460
#	228593
#
# Disc length: 3164 seconds
#
# Revision: 1
# Processed by: cddbd v1.5.2PL0 Copyright (c) Steve Scherf et al.
# Submitted via: audiograbber 1.83.01
#
DISCID=610c5a18
DTITLE=eddie cochran - the very best of
DYEAR=1900
DGENRE=
TTITLE0=c'mon everybody
TTITLE1=three steps to heaven
TTITLE2=weekend
TTITLE3=skinny jim
TTITLE4=completely sweet
TTITLE5=milk cow blues
TTITLE6=cut across shorty
TTITLE7=hallelujah, i love her so
TTITLE8=somethin' else
TTITLE9=blue suede shoes
TTITLE10=eddie's blues
TTITLE11=sittin' in the balcony
TTITLE12=summertime blues
TTITLE13=twenty flight rock
TTITLE14=three stars
TTITLE15=cherished memories
TTITLE16=long tall sally (bonus)
TTITLE17=pocketful of hearts (bonus)
TTITLE18=pretty girl (bonus)
TTITLE19=have i told you lately that i love you (bonus)
TTITLE20=little angel (bonus)
TTITLE21=jeannie, jeannie, jeannie (bonus)
TTITLE22=weekend (stereo) (bonus)
TTITLE23=let's get together (1st version of 'c'mon everybody'( (bonus)
EXTD=
EXTT0=
EXTT1=
EXTT2=
EXTT3=
EXTT4=
EXTT5=
EXTT6=
EXTT7=
EXTT8=
EXTT9=
EXTT10=
EXTT11=
EXTT12=
EXTT13=
EXTT14=
EXTT15=
EXTT16=
EXTT17=
EXTT18=
EXTT19=
EXTT20=
EXTT21=
EXTT22=
EXTT23=
PLAYORDER=
